<svg width="112" height="52" viewBox="0 0 112 52" fill="none" xmlns="http://www.w3.org/2000/svg">
<path d="M46.9342 50.8205L46.9195 49.337C47.1545 49.3859 47.3993 49.43 47.6539 49.4692C47.9085 49.5034 48.1435 49.5206 48.359 49.5206C48.9514 49.5206 49.4752 49.4447 49.9306 49.2929C50.3859 49.1411 50.7409 48.9257 50.9954 48.6466C51.25 48.3627 51.3773 48.0322 51.3773 47.6552C51.3773 47.3663 51.3112 47.102 51.179 46.8621C51.0469 46.6173 50.8314 46.4263 50.5328 46.2892C50.2341 46.1521 49.8351 46.0983 49.3357 46.1277L48.4765 46.3259L48.1386 44.8939C48.4324 44.84 48.7115 44.7739 48.9758 44.6956C49.2402 44.6123 49.4728 44.5193 49.6735 44.4165C50.0701 44.2256 50.3688 43.9979 50.5695 43.7335C50.7751 43.4642 50.8828 43.1705 50.8926 42.8522C50.9122 42.4361 50.7849 42.1276 50.5107 41.9269C50.2366 41.7261 49.8816 41.6258 49.4459 41.6258C48.9465 41.6258 48.5181 41.7066 48.1607 41.8681C47.8082 42.0248 47.5046 42.1937 47.25 42.3749L46.545 41.0015C46.7017 40.8547 46.9514 40.6955 47.2941 40.5242C47.6368 40.3528 48.0309 40.2084 48.4765 40.0909C48.922 39.9685 49.3749 39.9073 49.8351 39.9073C50.5058 39.9073 51.0909 40.0077 51.5903 40.2084C52.0897 40.4091 52.4765 40.7004 52.7507 41.0823C53.0297 41.4593 53.1693 41.9195 53.1693 42.463C53.1693 42.9428 53.0665 43.3737 52.8608 43.7555C52.6552 44.1325 52.3761 44.4581 52.0236 44.7323C51.6711 45.0065 51.277 45.2317 50.8412 45.4079V45.1729C51.512 45.1827 52.0603 45.3149 52.4863 45.5695C52.9171 45.8192 53.2354 46.1423 53.441 46.5389C53.6466 46.9306 53.7494 47.3443 53.7494 47.7801C53.7494 48.3725 53.5487 48.9233 53.1472 49.4325C52.7507 49.9367 52.1876 50.3431 51.4581 50.6516C50.7335 50.96 49.8792 51.1142 48.8951 51.1142C48.4936 51.1142 48.1288 51.08 47.8008 51.0114C47.4728 50.9478 47.1839 50.8841 46.9342 50.8205Z" fill="#EB6440"/>
<path d="M60.4385 50.96V41.8094H57.3319V40.0468H65.8583V41.8094H62.7518V50.96H60.4385Z" fill="#EB6440"/>
<path d="M68.6015 45.6283L68.4987 44.0566C68.5869 43.8216 68.7484 43.5989 68.9834 43.3883C69.2184 43.1729 69.4975 42.9991 69.8206 42.8669C70.1438 42.7298 70.4841 42.6613 70.8415 42.6613C70.9883 42.6613 71.123 42.6686 71.2454 42.6833C71.3727 42.698 71.4657 42.7225 71.5245 42.7568V44.9379C71.4559 44.8939 71.3506 44.8498 71.2087 44.8057C71.0667 44.7617 70.8513 44.7396 70.5624 44.7396C70.2099 44.7396 69.9063 44.791 69.6517 44.8939C69.3971 44.9918 69.1817 45.1117 69.0055 45.2537C68.8341 45.3908 68.6995 45.5157 68.6015 45.6283ZM66.4938 50.96V42.7861H68.4326L68.5575 44.064L68.7337 44.4532V50.96H66.4938Z" fill="#EB6440"/>
<path d="M76.3012 51.0775C75.0429 51.0775 74.0784 50.703 73.4076 49.9539C72.7369 49.2048 72.4015 48.1693 72.4015 46.8474C72.4015 46.0542 72.5533 45.3443 72.8568 44.7176C73.1653 44.0909 73.6108 43.5964 74.1934 43.2341C74.776 42.8669 75.4884 42.6809 76.3305 42.676C76.7565 42.6711 77.1628 42.7249 77.5496 42.8375C77.9364 42.9501 78.2816 43.1337 78.5851 43.3883C78.8887 43.638 79.131 43.971 79.3122 44.3871C79.4982 44.7984 79.5937 45.3027 79.5986 45.9C79.5986 46.1986 79.5937 46.4753 79.5839 46.7299C79.5741 46.9845 79.5521 47.2023 79.5178 47.3835H73.6059L73.7528 46.1717H77.5129C77.5374 45.7751 77.5154 45.4275 77.4468 45.1289C77.3832 44.8253 77.2559 44.5903 77.0649 44.4238C76.874 44.2525 76.6047 44.1668 76.2571 44.1668C75.9193 44.1668 75.6231 44.2598 75.3685 44.4459C75.1188 44.6319 74.9254 44.9526 74.7883 45.4079C74.6561 45.8584 74.5998 46.4802 74.6194 47.2733C74.639 47.807 74.7418 48.2354 74.9278 48.5585C75.1188 48.8768 75.3758 49.1069 75.6989 49.2489C76.027 49.3859 76.4064 49.4545 76.8373 49.4545C77.0723 49.4545 77.3293 49.4349 77.6084 49.3957C77.8875 49.3566 78.1518 49.3052 78.4015 49.2415C78.6512 49.173 78.8422 49.1044 78.9744 49.0359L79.3489 50.255C79.1678 50.4019 78.9181 50.5389 78.5998 50.6662C78.2865 50.7886 77.9291 50.8866 77.5276 50.96C77.131 51.0383 76.7222 51.0775 76.3012 51.0775Z" fill="#EB6440"/>
<path d="M83.4924 51.0775C82.9734 51.0775 82.5181 50.9722 82.1264 50.7617C81.7348 50.5512 81.4288 50.2574 81.2084 49.8804C80.993 49.5034 80.8853 49.0653 80.8853 48.5659C80.8853 48.0665 81.0199 47.6381 81.2892 47.2807C81.5634 46.9233 81.933 46.6442 82.3982 46.4434C82.7164 46.3113 83.064 46.2084 83.441 46.135C83.8229 46.0616 84.2023 46.0101 84.5793 45.9808C84.9612 45.9514 85.3162 45.9367 85.6442 45.9367L86.0188 46.3994L85.6442 47.1191C85.468 47.1191 85.2697 47.1313 85.0494 47.1558C84.829 47.1803 84.6161 47.217 84.4104 47.266C84.2097 47.31 84.0408 47.3614 83.9037 47.4202C83.7127 47.5083 83.5414 47.6258 83.3896 47.7727C83.2427 47.9196 83.1693 48.1448 83.1693 48.4484C83.1693 48.8449 83.2794 49.1387 83.4998 49.3296C83.7201 49.5157 84.0041 49.6087 84.3517 49.6087C84.5328 49.6087 84.7115 49.5842 84.8878 49.5353C85.0689 49.4863 85.2281 49.43 85.3651 49.3664C85.5022 49.2978 85.5953 49.2342 85.6442 49.1754L86.0335 49.6381L85.7617 50.2697C85.5414 50.4655 85.2379 50.6491 84.8511 50.8205C84.4692 50.9918 84.0163 51.0775 83.4924 51.0775ZM87.8841 50.96H85.7617V49.7409H85.6442V45.3345C85.6442 44.9183 85.5341 44.6466 85.3137 44.5193C85.0934 44.3871 84.7776 44.321 84.3664 44.321C84.0579 44.321 83.7348 44.348 83.3969 44.4018C83.064 44.4557 82.7482 44.5267 82.4496 44.6148C82.1509 44.7029 81.9012 44.7984 81.7005 44.9012L81.2158 43.4912C81.3822 43.3932 81.6417 43.2782 81.9942 43.146C82.3468 43.0138 82.7507 42.8987 83.206 42.8008C83.6613 42.698 84.1191 42.6466 84.5793 42.6466C85.3333 42.6466 85.9527 42.7347 86.4374 42.911C86.927 43.0872 87.2893 43.3859 87.5243 43.8069C87.7642 44.228 87.8841 44.8106 87.8841 45.5548V50.96Z" fill="#EB6440"/>
<path d="M97.5752 42.7788L92.126 48.5659L92.2288 48.0885L92.2582 49.5059V50.96H90.0623V46.0983V39.048H92.2582V44.299L92.1701 46.7813L91.8249 46.4508L94.9975 42.7788H97.5752ZM92.9852 47.2807L94.4687 45.7605L97.8323 50.96H95.328L92.9852 47.2807Z" fill="#EB6440"/>
<mask id="path-2-outside-1_1_1310" maskUnits="userSpaceOnUse" x="30.9011" y="0" width="71" height="32" fill="black">
<rect fill="white" x="30.9011" width="71" height="32"/>
<path d="M36.1018 21.0357C36.7481 18.8227 37.7567 16.9622 39.1276 15.4542C40.4984 13.9267 41.7714 13.1629 42.9464 13.1629C44.1411 13.1629 44.9832 13.5252 45.4728 14.2498C45.982 14.9548 46.2366 15.9242 46.2366 17.158C46.2366 18.3722 46.0407 20.0858 45.649 22.2988C45.2769 24.5118 45.0909 26.1275 45.0909 27.1459C45.0909 28.1446 45.2182 28.879 45.4728 29.3491C45.7274 29.7995 46.1582 30.1912 46.7653 30.5241C46.5107 30.5437 46.1484 30.5535 45.6784 30.5535C44.0334 30.5535 42.8583 30.2989 42.1533 29.7897C41.4678 29.2805 41.1251 28.3894 41.1251 27.1165C41.1251 26.3919 41.321 24.9818 41.7126 22.8863C42.1043 20.7713 42.3002 19.1948 42.3002 18.1568C42.3002 16.8643 41.9085 16.218 41.1251 16.218C40.6551 16.218 40.1361 16.4824 39.5682 17.0111C39.0003 17.5399 38.4519 18.2645 37.9231 19.185C37.414 20.0858 36.9831 21.2511 36.6306 22.6807C36.2781 24.1103 36.1018 25.54 36.1018 26.9696C36.1018 28.3797 36.1606 29.4274 36.2781 30.1128C35.6514 30.152 35.2401 30.1716 35.0443 30.1716C33.928 30.1716 33.1251 29.9855 32.6355 29.6134C32.1459 29.2218 31.9011 28.6049 31.9011 27.7628C31.9011 26.9206 32.0675 25.3148 32.4005 22.9451C33.458 15.6598 33.9868 10.1274 33.9868 6.34765C33.9868 4.64384 33.8693 3.49818 33.6342 2.91065C35.103 3.30234 36.1018 3.89965 36.6306 4.70259C37.179 5.48595 37.4531 6.60224 37.4531 8.05146C37.4531 9.03066 37.2573 11.087 36.8656 14.2204C36.4935 17.3539 36.2389 19.6256 36.1018 21.0357Z"/>
<path d="M53.6421 24.1789C53.6421 26.5094 54.3471 27.6746 55.7571 27.6746C56.5013 27.6746 57.2259 27.2732 57.931 26.4702C58.636 25.6673 59.2039 24.5901 59.6348 23.2389C60.0852 21.8876 60.4671 20.4481 60.7804 18.9206C61.1134 17.3734 61.3582 15.7382 61.5148 14.0148C61.789 10.6855 61.9261 8.09062 61.9261 6.23014C61.9261 4.35008 61.8478 2.94003 61.6911 2C63.1011 2.31334 64.0901 2.9792 64.6581 3.99757C65.226 5.01594 65.51 6.29869 65.51 7.84583C65.51 9.39296 65.177 12.2718 64.5112 16.4824C63.8649 20.6929 63.5418 23.7676 63.5418 25.7064C63.5418 27.6453 63.6299 29.2903 63.8062 30.6416C62.4157 30.2695 61.4561 29.6037 60.9273 28.644C60.4181 27.6648 60.1635 26.4408 60.1635 24.972C59.5564 26.6563 58.6458 27.988 57.4316 28.9672C56.2174 29.9464 54.964 30.436 53.6714 30.436C52.3789 30.436 51.3214 29.9464 50.4988 28.9672C49.6959 27.9684 49.2944 26.5094 49.2944 24.5901C49.2944 21.5546 50.1267 18.95 51.7914 16.7761C53.456 14.5827 55.4242 13.486 57.6959 13.486C58.3422 13.486 59.3606 13.6427 60.7511 13.956C59.5368 14.2694 58.4499 14.8177 57.4903 15.6011C56.5503 16.3649 55.8159 17.2461 55.2871 18.2449C54.1904 20.2229 53.6421 22.2009 53.6421 24.1789Z"/>
<path d="M79.4991 13.1629C80.6546 13.1629 81.4771 13.5252 81.9667 14.2498C82.4759 14.9548 82.7305 15.9242 82.7305 17.158C82.7305 18.3722 82.5347 20.0858 82.143 22.2988C81.7709 24.5118 81.5848 26.1275 81.5848 27.1459C81.5848 28.1446 81.7121 28.879 81.9667 29.3491C82.2213 29.7995 82.6522 30.1912 83.2593 30.5241C83.0047 30.5437 82.6424 30.5535 82.1724 30.5535C80.5273 30.5535 79.3523 30.2989 78.6472 29.7897C77.9618 29.2805 77.6191 28.3894 77.6191 27.1165C77.6191 26.3919 77.8149 24.9818 78.2066 22.8863C78.5983 20.7713 78.7941 19.1948 78.7941 18.1568C78.7941 16.8643 78.4024 16.218 77.6191 16.218C77.1686 16.218 76.6595 16.4824 76.0915 17.0111C75.5236 17.5399 74.9752 18.2645 74.4465 19.185C73.9177 20.0858 73.4771 21.2511 73.1245 22.6807C72.772 24.1103 72.5958 25.54 72.5958 26.9696C72.5958 28.3797 72.6545 29.4274 72.772 30.1128C72.1453 30.152 71.7341 30.1716 71.5382 30.1716C70.422 30.1716 69.619 29.9757 69.1294 29.5841C68.6398 29.1924 68.395 28.5461 68.395 27.6453C68.395 27.2536 68.6006 25.7456 69.0119 23.1213C69.4232 20.4971 69.6288 18.4114 69.6288 16.8643C69.6288 15.2975 69.4623 13.8581 69.1294 12.546C70.559 12.9964 71.5578 13.6427 72.1258 14.4848C72.6937 15.3073 72.9777 16.2572 72.9777 17.3343C72.9777 18.3918 72.8602 19.6256 72.6252 21.0357C73.2714 18.8422 74.2898 16.9818 75.6803 15.4542C77.0707 13.9267 78.3437 13.1629 79.4991 13.1629Z"/>
<path d="M93.2758 22.8863C92.3358 22.8863 91.4153 22.7786 90.5144 22.5632C90.4949 22.759 90.4851 23.0626 90.4851 23.4739C90.4851 25.0993 90.7886 26.3233 91.3957 27.1459C92.0028 27.9684 92.7274 28.3797 93.5695 28.3797C94.4117 28.3797 95.2146 28.1251 95.9784 27.6159C96.7422 27.1067 97.408 26.4017 97.976 25.5008C98.681 25.6575 99.0335 26.0198 99.0335 26.5877C97.3101 29.2316 95.0873 30.5535 92.3651 30.5535C90.7201 30.5535 89.2807 29.9268 88.0469 28.6734C86.8131 27.4005 86.1962 25.6379 86.1962 23.3857C86.1962 21.7015 86.5193 20.1054 87.1656 18.5974C87.8119 17.0699 88.84 15.7871 90.2501 14.7492C91.6601 13.6917 93.217 13.1629 94.9208 13.1629C96.6442 13.1629 97.9074 13.5546 98.7104 14.3379C99.5133 15.1213 99.9148 16.1494 99.9148 17.4224C99.9148 19.2633 99.2685 20.6342 97.976 21.535C96.703 22.4359 95.1363 22.8863 93.2758 22.8863ZM94.5096 14.9842C93.5108 14.9842 92.6687 15.6011 91.9832 16.8349C91.2978 18.0687 90.8474 19.5669 90.632 21.3294H91.0726C92.7764 21.3294 94.0298 20.8888 94.8327 20.0075C95.6552 19.1262 96.0665 18.0687 96.0665 16.8349C96.0665 16.3257 95.9294 15.8949 95.6553 15.5423C95.4007 15.1702 95.0188 14.9842 94.5096 14.9842Z"/>
</mask>
<path d="M36.1018 21.0357C36.7481 18.8227 37.7567 16.9622 39.1276 15.4542C40.4984 13.9267 41.7714 13.1629 42.9464 13.1629C44.1411 13.1629 44.9832 13.5252 45.4728 14.2498C45.982 14.9548 46.2366 15.9242 46.2366 17.158C46.2366 18.3722 46.0407 20.0858 45.649 22.2988C45.2769 24.5118 45.0909 26.1275 45.0909 27.1459C45.0909 28.1446 45.2182 28.879 45.4728 29.3491C45.7274 29.7995 46.1582 30.1912 46.7653 30.5241C46.5107 30.5437 46.1484 30.5535 45.6784 30.5535C44.0334 30.5535 42.8583 30.2989 42.1533 29.7897C41.4678 29.2805 41.1251 28.3894 41.1251 27.1165C41.1251 26.3919 41.321 24.9818 41.7126 22.8863C42.1043 20.7713 42.3002 19.1948 42.3002 18.1568C42.3002 16.8643 41.9085 16.218 41.1251 16.218C40.6551 16.218 40.1361 16.4824 39.5682 17.0111C39.0003 17.5399 38.4519 18.2645 37.9231 19.185C37.414 20.0858 36.9831 21.2511 36.6306 22.6807C36.2781 24.1103 36.1018 25.54 36.1018 26.9696C36.1018 28.3797 36.1606 29.4274 36.2781 30.1128C35.6514 30.152 35.2401 30.1716 35.0443 30.1716C33.928 30.1716 33.1251 29.9855 32.6355 29.6134C32.1459 29.2218 31.9011 28.6049 31.9011 27.7628C31.9011 26.9206 32.0675 25.3148 32.4005 22.9451C33.458 15.6598 33.9868 10.1274 33.9868 6.34765C33.9868 4.64384 33.8693 3.49818 33.6342 2.91065C35.103 3.30234 36.1018 3.89965 36.6306 4.70259C37.179 5.48595 37.4531 6.60224 37.4531 8.05146C37.4531 9.03066 37.2573 11.087 36.8656 14.2204C36.4935 17.3539 36.2389 19.6256 36.1018 21.0357Z" fill="#EB6440"/>
<path d="M53.6421 24.1789C53.6421 26.5094 54.3471 27.6746 55.7571 27.6746C56.5013 27.6746 57.2259 27.2732 57.931 26.4702C58.636 25.6673 59.2039 24.5901 59.6348 23.2389C60.0852 21.8876 60.4671 20.4481 60.7804 18.9206C61.1134 17.3734 61.3582 15.7382 61.5148 14.0148C61.789 10.6855 61.9261 8.09062 61.9261 6.23014C61.9261 4.35008 61.8478 2.94003 61.6911 2C63.1011 2.31334 64.0901 2.9792 64.6581 3.99757C65.226 5.01594 65.51 6.29869 65.51 7.84583C65.51 9.39296 65.177 12.2718 64.5112 16.4824C63.8649 20.6929 63.5418 23.7676 63.5418 25.7064C63.5418 27.6453 63.6299 29.2903 63.8062 30.6416C62.4157 30.2695 61.4561 29.6037 60.9273 28.644C60.4181 27.6648 60.1635 26.4408 60.1635 24.972C59.5564 26.6563 58.6458 27.988 57.4316 28.9672C56.2174 29.9464 54.964 30.436 53.6714 30.436C52.3789 30.436 51.3214 29.9464 50.4988 28.9672C49.6959 27.9684 49.2944 26.5094 49.2944 24.5901C49.2944 21.5546 50.1267 18.95 51.7914 16.7761C53.456 14.5827 55.4242 13.486 57.6959 13.486C58.3422 13.486 59.3606 13.6427 60.7511 13.956C59.5368 14.2694 58.4499 14.8177 57.4903 15.6011C56.5503 16.3649 55.8159 17.2461 55.2871 18.2449C54.1904 20.2229 53.6421 22.2009 53.6421 24.1789Z" fill="#EB6440"/>
<path d="M79.4991 13.1629C80.6546 13.1629 81.4771 13.5252 81.9667 14.2498C82.4759 14.9548 82.7305 15.9242 82.7305 17.158C82.7305 18.3722 82.5347 20.0858 82.143 22.2988C81.7709 24.5118 81.5848 26.1275 81.5848 27.1459C81.5848 28.1446 81.7121 28.879 81.9667 29.3491C82.2213 29.7995 82.6522 30.1912 83.2593 30.5241C83.0047 30.5437 82.6424 30.5535 82.1724 30.5535C80.5273 30.5535 79.3523 30.2989 78.6472 29.7897C77.9618 29.2805 77.6191 28.3894 77.6191 27.1165C77.6191 26.3919 77.8149 24.9818 78.2066 22.8863C78.5983 20.7713 78.7941 19.1948 78.7941 18.1568C78.7941 16.8643 78.4024 16.218 77.6191 16.218C77.1686 16.218 76.6595 16.4824 76.0915 17.0111C75.5236 17.5399 74.9752 18.2645 74.4465 19.185C73.9177 20.0858 73.4771 21.2511 73.1245 22.6807C72.772 24.1103 72.5958 25.54 72.5958 26.9696C72.5958 28.3797 72.6545 29.4274 72.772 30.1128C72.1453 30.152 71.7341 30.1716 71.5382 30.1716C70.422 30.1716 69.619 29.9757 69.1294 29.5841C68.6398 29.1924 68.395 28.5461 68.395 27.6453C68.395 27.2536 68.6006 25.7456 69.0119 23.1213C69.4232 20.4971 69.6288 18.4114 69.6288 16.8643C69.6288 15.2975 69.4623 13.8581 69.1294 12.546C70.559 12.9964 71.5578 13.6427 72.1258 14.4848C72.6937 15.3073 72.9777 16.2572 72.9777 17.3343C72.9777 18.3918 72.8602 19.6256 72.6252 21.0357C73.2714 18.8422 74.2898 16.9818 75.6803 15.4542C77.0707 13.9267 78.3437 13.1629 79.4991 13.1629Z" fill="#EB6440"/>
<path d="M93.2758 22.8863C92.3358 22.8863 91.4153 22.7786 90.5144 22.5632C90.4949 22.759 90.4851 23.0626 90.4851 23.4739C90.4851 25.0993 90.7886 26.3233 91.3957 27.1459C92.0028 27.9684 92.7274 28.3797 93.5695 28.3797C94.4117 28.3797 95.2146 28.1251 95.9784 27.6159C96.7422 27.1067 97.408 26.4017 97.976 25.5008C98.681 25.6575 99.0335 26.0198 99.0335 26.5877C97.3101 29.2316 95.0873 30.5535 92.3651 30.5535C90.7201 30.5535 89.2807 29.9268 88.0469 28.6734C86.8131 27.4005 86.1962 25.6379 86.1962 23.3857C86.1962 21.7015 86.5193 20.1054 87.1656 18.5974C87.8119 17.0699 88.84 15.7871 90.2501 14.7492C91.6601 13.6917 93.217 13.1629 94.9208 13.1629C96.6442 13.1629 97.9074 13.5546 98.7104 14.3379C99.5133 15.1213 99.9148 16.1494 99.9148 17.4224C99.9148 19.2633 99.2685 20.6342 97.976 21.535C96.703 22.4359 95.1363 22.8863 93.2758 22.8863ZM94.5096 14.9842C93.5108 14.9842 92.6687 15.6011 91.9832 16.8349C91.2978 18.0687 90.8474 19.5669 90.632 21.3294H91.0726C92.7764 21.3294 94.0298 20.8888 94.8327 20.0075C95.6552 19.1262 96.0665 18.0687 96.0665 16.8349C96.0665 16.3257 95.9294 15.8949 95.6553 15.5423C95.4007 15.1702 95.0188 14.9842 94.5096 14.9842Z" fill="#EB6440"/>
<path d="M36.1018 21.0357C36.7481 18.8227 37.7567 16.9622 39.1276 15.4542C40.4984 13.9267 41.7714 13.1629 42.9464 13.1629C44.1411 13.1629 44.9832 13.5252 45.4728 14.2498C45.982 14.9548 46.2366 15.9242 46.2366 17.158C46.2366 18.3722 46.0407 20.0858 45.649 22.2988C45.2769 24.5118 45.0909 26.1275 45.0909 27.1459C45.0909 28.1446 45.2182 28.879 45.4728 29.3491C45.7274 29.7995 46.1582 30.1912 46.7653 30.5241C46.5107 30.5437 46.1484 30.5535 45.6784 30.5535C44.0334 30.5535 42.8583 30.2989 42.1533 29.7897C41.4678 29.2805 41.1251 28.3894 41.1251 27.1165C41.1251 26.3919 41.321 24.9818 41.7126 22.8863C42.1043 20.7713 42.3002 19.1948 42.3002 18.1568C42.3002 16.8643 41.9085 16.218 41.1251 16.218C40.6551 16.218 40.1361 16.4824 39.5682 17.0111C39.0003 17.5399 38.4519 18.2645 37.9231 19.185C37.414 20.0858 36.9831 21.2511 36.6306 22.6807C36.2781 24.1103 36.1018 25.54 36.1018 26.9696C36.1018 28.3797 36.1606 29.4274 36.2781 30.1128C35.6514 30.152 35.2401 30.1716 35.0443 30.1716C33.928 30.1716 33.1251 29.9855 32.6355 29.6134C32.1459 29.2218 31.9011 28.6049 31.9011 27.7628C31.9011 26.9206 32.0675 25.3148 32.4005 22.9451C33.458 15.6598 33.9868 10.1274 33.9868 6.34765C33.9868 4.64384 33.8693 3.49818 33.6342 2.91065C35.103 3.30234 36.1018 3.89965 36.6306 4.70259C37.179 5.48595 37.4531 6.60224 37.4531 8.05146C37.4531 9.03066 37.2573 11.087 36.8656 14.2204C36.4935 17.3539 36.2389 19.6256 36.1018 21.0357Z" stroke="#EB6440" stroke-width="2" mask="url(#path-2-outside-1_1_1310)"/>
<path d="M53.6421 24.1789C53.6421 26.5094 54.3471 27.6746 55.7571 27.6746C56.5013 27.6746 57.2259 27.2732 57.931 26.4702C58.636 25.6673 59.2039 24.5901 59.6348 23.2389C60.0852 21.8876 60.4671 20.4481 60.7804 18.9206C61.1134 17.3734 61.3582 15.7382 61.5148 14.0148C61.789 10.6855 61.9261 8.09062 61.9261 6.23014C61.9261 4.35008 61.8478 2.94003 61.6911 2C63.1011 2.31334 64.0901 2.9792 64.6581 3.99757C65.226 5.01594 65.51 6.29869 65.51 7.84583C65.51 9.39296 65.177 12.2718 64.5112 16.4824C63.8649 20.6929 63.5418 23.7676 63.5418 25.7064C63.5418 27.6453 63.6299 29.2903 63.8062 30.6416C62.4157 30.2695 61.4561 29.6037 60.9273 28.644C60.4181 27.6648 60.1635 26.4408 60.1635 24.972C59.5564 26.6563 58.6458 27.988 57.4316 28.9672C56.2174 29.9464 54.964 30.436 53.6714 30.436C52.3789 30.436 51.3214 29.9464 50.4988 28.9672C49.6959 27.9684 49.2944 26.5094 49.2944 24.5901C49.2944 21.5546 50.1267 18.95 51.7914 16.7761C53.456 14.5827 55.4242 13.486 57.6959 13.486C58.3422 13.486 59.3606 13.6427 60.7511 13.956C59.5368 14.2694 58.4499 14.8177 57.4903 15.6011C56.5503 16.3649 55.8159 17.2461 55.2871 18.2449C54.1904 20.2229 53.6421 22.2009 53.6421 24.1789Z" stroke="#EB6440" stroke-width="2" mask="url(#path-2-outside-1_1_1310)"/>
<path d="M79.4991 13.1629C80.6546 13.1629 81.4771 13.5252 81.9667 14.2498C82.4759 14.9548 82.7305 15.9242 82.7305 17.158C82.7305 18.3722 82.5347 20.0858 82.143 22.2988C81.7709 24.5118 81.5848 26.1275 81.5848 27.1459C81.5848 28.1446 81.7121 28.879 81.9667 29.3491C82.2213 29.7995 82.6522 30.1912 83.2593 30.5241C83.0047 30.5437 82.6424 30.5535 82.1724 30.5535C80.5273 30.5535 79.3523 30.2989 78.6472 29.7897C77.9618 29.2805 77.6191 28.3894 77.6191 27.1165C77.6191 26.3919 77.8149 24.9818 78.2066 22.8863C78.5983 20.7713 78.7941 19.1948 78.7941 18.1568C78.7941 16.8643 78.4024 16.218 77.6191 16.218C77.1686 16.218 76.6595 16.4824 76.0915 17.0111C75.5236 17.5399 74.9752 18.2645 74.4465 19.185C73.9177 20.0858 73.4771 21.2511 73.1245 22.6807C72.772 24.1103 72.5958 25.54 72.5958 26.9696C72.5958 28.3797 72.6545 29.4274 72.772 30.1128C72.1453 30.152 71.7341 30.1716 71.5382 30.1716C70.422 30.1716 69.619 29.9757 69.1294 29.5841C68.6398 29.1924 68.395 28.5461 68.395 27.6453C68.395 27.2536 68.6006 25.7456 69.0119 23.1213C69.4232 20.4971 69.6288 18.4114 69.6288 16.8643C69.6288 15.2975 69.4623 13.8581 69.1294 12.546C70.559 12.9964 71.5578 13.6427 72.1258 14.4848C72.6937 15.3073 72.9777 16.2572 72.9777 17.3343C72.9777 18.3918 72.8602 19.6256 72.6252 21.0357C73.2714 18.8422 74.2898 16.9818 75.6803 15.4542C77.0707 13.9267 78.3437 13.1629 79.4991 13.1629Z" stroke="#EB6440" stroke-width="2" mask="url(#path-2-outside-1_1_1310)"/>
<path d="M93.2758 22.8863C92.3358 22.8863 91.4153 22.7786 90.5144 22.5632C90.4949 22.759 90.4851 23.0626 90.4851 23.4739C90.4851 25.0993 90.7886 26.3233 91.3957 27.1459C92.0028 27.9684 92.7274 28.3797 93.5695 28.3797C94.4117 28.3797 95.2146 28.1251 95.9784 27.6159C96.7422 27.1067 97.408 26.4017 97.976 25.5008C98.681 25.6575 99.0335 26.0198 99.0335 26.5877C97.3101 29.2316 95.0873 30.5535 92.3651 30.5535C90.7201 30.5535 89.2807 29.9268 88.0469 28.6734C86.8131 27.4005 86.1962 25.6379 86.1962 23.3857C86.1962 21.7015 86.5193 20.1054 87.1656 18.5974C87.8119 17.0699 88.84 15.7871 90.2501 14.7492C91.6601 13.6917 93.217 13.1629 94.9208 13.1629C96.6442 13.1629 97.9074 13.5546 98.7104 14.3379C99.5133 15.1213 99.9148 16.1494 99.9148 17.4224C99.9148 19.2633 99.2685 20.6342 97.976 21.535C96.703 22.4359 95.1363 22.8863 93.2758 22.8863ZM94.5096 14.9842C93.5108 14.9842 92.6687 15.6011 91.9832 16.8349C91.2978 18.0687 90.8474 19.5669 90.632 21.3294H91.0726C92.7764 21.3294 94.0298 20.8888 94.8327 20.0075C95.6552 19.1262 96.0665 18.0687 96.0665 16.8349C96.0665 16.3257 95.9294 15.8949 95.6553 15.5423C95.4007 15.1702 95.0188 14.9842 94.5096 14.9842Z" stroke="#EB6440" stroke-width="2" mask="url(#path-2-outside-1_1_1310)"/>
<path d="M14.6211 4.89612C14.843 5.34002 14.9679 5.75618 14.9956 6.1446C15.0511 6.53301 15.0788 7.24049 15.0788 8.26701C15.0788 9.29354 14.732 12.1789 14.0384 16.9231L13.6639 19.3369C17.4093 16.2573 20.5721 13.2748 23.1523 10.3894C25.7325 7.47631 27.5498 5.0071 28.604 2.98178C29.5196 4.59093 29.9774 6.17234 29.9774 7.72601C29.9774 9.25193 29.1867 10.8195 27.6052 12.4286C26.0516 14.0378 23.6933 16.0076 20.5305 18.3381C22.4726 24.4695 24.6505 29.2137 27.0642 32.5708C27.6267 33.346 28.2724 34.1587 29.0014 35.0089C29.6029 35.7105 30.2563 36.7435 30.9712 37.4961C30.8152 37.4338 28.9231 37.6063 27.8966 37.6063C26.87 37.6063 25.8158 37.2872 24.7337 36.6491C23.6517 36.011 22.7084 35.2342 21.9039 34.3186C21.127 33.4031 20.3224 32.1824 19.4901 30.6564C18.2971 28.4092 17.007 25.4544 15.6198 21.7922C14.843 22.3748 13.9968 22.9713 13.0813 23.5817C12.5819 27.7156 12.3322 30.8506 12.3322 32.9869C12.3322 35.0955 12.5264 36.6075 12.9148 37.5231C10.5566 36.9127 8.9474 36.1081 8.08734 35.1093C7.22727 34.0828 6.79724 32.6679 6.79724 30.8645C6.79724 29.8102 7.08855 27.1329 7.67118 22.8326C8.69771 15.7024 9.04451 5.36604 9.04451 5.36604C9.04451 5.36604 9.15548 4.29962 9.04451 2.85693C11.3872 2.3061 12.6928 3.30084 13.6639 3.85572C14.08 4.07767 14.3991 4.42447 14.6211 4.89612Z" fill="#EB6440"/>
<path d="M111.27 36.745L102.575 43.9221C101.61 44.8317 100.127 43.3101 101.045 42.0861L103.494 37.4645H33.0957C32.4349 37.4645 31.5832 37.4645 31.5832 37.4645L31.518 33.5181L33.0957 32.5534H103.494L101.657 26.7861C101.351 25.8681 102.881 24.9501 103.795 25.9062L111.27 33.2728C111.738 33.7333 112 34.3578 112 35.0089C112 35.66 111.738 36.2845 111.27 36.745Z" fill="#EB6440"/>
<path d="M31.5832 37.4645L31.518 33.5181L29.0014 35.0089L29.4412 36.5781L30.9712 37.4961L31.5832 37.4645Z" fill="#EB6440"/>
<path d="M9.04451 5.36604C9.04451 5.36604 9.15548 4.29962 9.04451 2.85693C-1.36663 6.33597 -0.929689 17.1137 1.28924 21.7922C2.32638 20.7563 1.90092 20.0541 1.59492 19.1361C-0.550449 9.97776 7.96068 4.60089 9.04451 5.36604Z" fill="#EB6440"/>
</svg>
